<svg xmlns="http://www.w3.org/2000/svg" xmlns:xlink="http://www.w3.org/1999/xlink" version="1.1" x="0px" y="0px" viewBox="0 0 100 125" enable-background="new 0 0 100 100" xml:space="preserve"><path d="M59.458,37.466c-0.136,0.035-0.267,0.171-0.355,0.293c-0.205,0.278-0.359,0.598-0.582,0.858  c-0.144,0.168-0.361,0.295-0.57,0.378c-0.423,0.167-0.782-0.008-0.862-0.455c-0.148-0.817-0.252-2.304-0.357-3.129  c-0.062-0.48-0.089-0.965-0.138-1.518l-2.237,2.476c-0.58-0.007-1.159-0.061-1.739-0.062c-0.745-0.003-1.491-0.001-2.237,0.001  c-0.746-0.002-1.492-0.004-2.237-0.001c-0.58,0.001-1.16,0.055-1.739,0.062l-2.238-2.476c-0.049,0.552-0.076,1.037-0.138,1.518  c-0.105,0.826-0.209,2.312-0.357,3.129c-0.081,0.447-0.439,0.622-0.862,0.455c-0.209-0.083-0.426-0.21-0.57-0.378  c-0.224-0.26-0.377-0.58-0.583-0.858c-0.089-0.122-0.219-0.258-0.355-0.293l-11.371-7.047c-0.171,0.074-0.311,0.123-0.439,0.193  c-0.572,0.316-1.156,0.613-1.707,0.963c-4.762,3.024-8.739,6.884-12.083,11.407c-4.157,5.623-7.75,13.723-9.156,20.566  C6.4,64.241,6.286,64.94,6.148,65.692c0.096-0.06,0.132-0.078,0.166-0.102c3.787-2.687,9.485-4.992,14.045-5.877  c0.395-0.077,0.687-0.027,0.993,0.249c0.504,0.459,1.448,1.132,1.987,1.57c0.652-0.71,0.879-1.662,1.516-2.336  c0.124-0.132,0.292-0.259,0.462-0.304c0.875-0.229,1.748-0.488,2.639-0.63c1.551-0.246,3.071-0.104,4.501,0.617  c0.687,0.347,1.382,0.676,2.061,1.037c5.251,2.794,10.365,6.262,15.475,9.3c0.145,0.087,0.266,0.126,0.386,0.123  c0.121,0.003,0.241-0.036,0.386-0.123c5.11-3.038,10.224-6.506,15.475-9.3c0.679-0.361,1.374-0.69,2.061-1.037  c1.431-0.722,2.95-0.863,4.502-0.617c0.891,0.142,1.765,0.4,2.639,0.63c0.171,0.045,0.338,0.172,0.462,0.304  c0.638,0.674,0.864,1.626,1.517,2.336c0.539-0.438,1.482-1.111,1.986-1.57c0.306-0.276,0.598-0.326,0.992-0.249  c4.561,0.885,10.259,3.19,14.046,5.877c0.033,0.023,0.069,0.042,0.166,0.102c-0.139-0.752-0.253-1.451-0.396-2.145  c-1.405-6.843-5-14.943-9.156-20.566c-3.344-4.523-7.322-8.383-12.084-11.407c-0.55-0.35-1.135-0.646-1.706-0.963  c-0.128-0.07-0.268-0.119-0.439-0.193L59.458,37.466z"/><text x="0" y="115" fill="#000000" font-size="5px" font-weight="bold" font-family="'Helvetica Neue', Helvetica, Arial-Unicode, Arial, Sans-serif">Created by Stephen Plaster</text><text x="0" y="120" fill="#000000" font-size="5px" font-weight="bold" font-family="'Helvetica Neue', Helvetica, Arial-Unicode, Arial, Sans-serif">from the Noun Project</text></svg>